<svg id="Layer_1" data-name="Layer 1" xmlns="http://www.w3.org/2000/svg" viewBox="0 0 50 50"><defs><style>.cls-1{fill:#111114;}</style></defs><title>Untitled-2</title><path class="cls-1" d="M31.91,23.19l-.39,3.12a1,1,0,0,1-1,.91h-5V40.27c-.54,0-1.08.07-1.62.07A18.31,18.31,0,0,1,20.25,40V27.22H16.37a.65.65,0,0,1-.65-.65v-3.9a.65.65,0,0,1,.65-.65h3.88V16.16a6.49,6.49,0,0,1,6.48-6.5h4.54a.65.65,0,0,1,.65.65v3.9a.65.65,0,0,1-.65.65H28a2.6,2.6,0,0,0-2.59,2.6V22h5.44A1,1,0,0,1,31.91,23.19Z"/><path class="cls-1" d="M43.47.94H6.53A5.59,5.59,0,0,0,.94,6.53V43.47a5.59,5.59,0,0,0,5.59,5.59H43.47a5.59,5.59,0,0,0,5.59-5.59V6.53A5.59,5.59,0,0,0,43.47.94Zm3.36,42.53a3.37,3.37,0,0,1-3.36,3.36H6.53a3.37,3.37,0,0,1-3.36-3.36V6.53A3.37,3.37,0,0,1,6.53,3.17H43.47a3.37,3.37,0,0,1,3.36,3.36Z"/></svg>