<svg id="Layer_1" data-name="Layer 1" xmlns="http://www.w3.org/2000/svg" viewBox="0 0 50 50"><defs><style>.cls-1{fill:#111114;}</style></defs><title>Untitled-2</title><path class="cls-1" d="M33,9.66H17.09a7.4,7.4,0,0,0-7.41,7.4V32.94a7.4,7.4,0,0,0,7.41,7.4H33a7.4,7.4,0,0,0,7.41-7.4V17.06A7.4,7.4,0,0,0,33,9.66Zm4.76,22.75a5.29,5.29,0,0,1-5.29,5.29H17.62a5.29,5.29,0,0,1-5.29-5.29V17.59a5.29,5.29,0,0,1,5.29-5.29H32.43a5.29,5.29,0,0,1,5.29,5.29Z"/><path class="cls-1" d="M25,17.06A7.94,7.94,0,1,0,33,25,7.94,7.94,0,0,0,25,17.06Zm0,13.23A5.29,5.29,0,1,1,30.31,25,5.3,5.3,0,0,1,25,30.29Z"/><circle class="cls-1" cx="33.49" cy="16.53" r="1.59"/><path class="cls-1" d="M43.47.94H6.53A5.59,5.59,0,0,0,.94,6.53V43.47a5.59,5.59,0,0,0,5.59,5.59H43.47a5.59,5.59,0,0,0,5.59-5.59V6.53A5.59,5.59,0,0,0,43.47.94Zm3.36,42.53a3.37,3.37,0,0,1-3.36,3.36H6.53a3.37,3.37,0,0,1-3.36-3.36V6.53A3.37,3.37,0,0,1,6.53,3.17H43.47a3.37,3.37,0,0,1,3.36,3.36Z"/></svg>